<?xml version="1.0" ?><svg viewBox="0 0 22.464 22.44" xmlns="http://www.w3.org/2000/svg"><g data-name="Layer 2" id="Layer_2"><g data-name="Layer 1" id="Layer_1-2"><path d="M3.8,4.315h.667V13.6a.341.341,0,1,0,.681,0V4.315h5.12V8.061a.339.339,0,0,0,.492.3l1.663-.832,1.664.832a.34.34,0,0,0,.492-.3V4.315h5.12v9.968a.34.34,0,0,0,.68,0V4.315c.277-.031,1.016.148,1.008-.341V.341A.341.341,0,0,0,21.042,0H3.8a.341.341,0,0,0-.34.341V3.974A.341.341,0,0,0,3.8,4.315ZM14.574.681H20.7V3.634H14.574Zm-3.63,0h2.949V7.51a15.112,15.112,0,0,0-1.475-.7,15.7,15.7,0,0,0-1.474.7Zm-6.809,0h6.128V3.634H4.135ZM22.041,16.665a.983.983,0,0,0-.95-.127.977.977,0,0,0-.423-1.081c-.46-.354-1.161-.052-2.323.448a22.184,22.184,0,0,1-2.723,1.008,1.649,1.649,0,0,0-1.356-.7c-3.137.053-3.661-.258-4.274-.619-.775-.455-1.654-.971-6.79-.971H.34a.341.341,0,0,0-.34.341v6.127a.34.34,0,0,0,.34.34H3.147c4.306,1.511,13.287,1.833,18.487-2.645C22.006,18.566,23.039,17.456,22.041,16.665ZM2.861,20.747H.68V15.3H2.861ZM15.84,17.559c1.544-.347,3.224-1.438,4.414-1.562,1.108.959-3.053,2-4.454,2.413A1.882,1.882,0,0,0,15.84,17.559Zm5.389.676c-6.961,5.523-16.131,3.076-17.687,2.6V15.3c4.648.02,5.422.474,6.105.876.7.412,1.307.768,4.642.712a.92.92,0,0,1,.895,1.151c-.006.1-.024.4-.624.646-.671.261-2.035.469-5.133.071a.341.341,0,0,0-.088.676c3.524.8,8.363-.664,10.762-1.8.7-.3,1.356-.575,1.5-.452C22.093,17.556,21.458,18.05,21.229,18.235ZM1.771,16.08a.341.341,0,0,1,0,.682A.341.341,0,0,1,1.771,16.08Z" id="receive"/></g></g></svg>