<?xml version="1.0" ?><svg viewBox="0 0 22.465 19.718" xmlns="http://www.w3.org/2000/svg"><g data-name="Layer 2" id="Layer_2"><g data-name="Layer 1" id="Layer_1-2"><path d="M5.786,17.473a.341.341,0,0,1,0-.681A.341.341,0,0,1,5.786,17.473Zm11.8-.681a.341.341,0,0,0,0,.681A.341.341,0,0,0,17.587,16.792Zm4.878-4.2v3.631a1.249,1.249,0,0,1-1.248,1.248H20.172a2.611,2.611,0,0,1-5.17,0H8.372a2.611,2.611,0,0,1-5.17,0H1.249A1.25,1.25,0,0,1,0,16.225V6.7a.341.341,0,0,1,.341-.341H3.177V.34A.341.341,0,0,1,3.518,0H9.871a.341.341,0,0,1,.341.34V6.354h2.5V4.425a.341.341,0,0,1,.341-.34H16.09a2.605,2.605,0,0,1,2.4,1.581l2.051,4.785A2.158,2.158,0,0,1,22.465,12.594ZM9.077,7.035v1.88c.177-.043.737-.375.921-.267l.667.266V7.035ZM5.9,2.561c.177-.044.736-.376.921-.268l.667.268V.681H5.9ZM3.858,6.353H9.531V.681H8.17V3.064a.338.338,0,0,1-.15.281c-.195.2-.981-.27-1.325-.369-.341.1-1.13.572-1.325.369a.338.338,0,0,1-.15-.281V.681H3.858ZM2.723,8.915a6.139,6.139,0,0,1,.8-.292,6.293,6.293,0,0,1,.794.292V7.035H2.723ZM.681,12.708H6.354V7.035H4.993V9.418a.342.342,0,0,1-.15.282c-.2.2-.975-.268-1.325-.37-.34.1-1.13.571-1.326.37a.341.341,0,0,1-.149-.282V7.035H.681Zm5.106,2.5a1.929,1.929,0,0,0,0,3.857A1.929,1.929,0,0,0,5.787,15.2Zm6.921-1.816H.682v2.836a.567.567,0,0,0,.567.567H3.2a2.611,2.611,0,0,1,5.17,0h4.336Zm0-.68V7.035H11.346V9.418A.344.344,0,0,1,11.2,9.7c-.2.2-.983-.271-1.325-.37-.347.1-1.131.571-1.326.37a.342.342,0,0,1-.15-.282V7.035H7.036v5.673Zm2.95-3.654a1.387,1.387,0,0,0,1.385,1.385h2.75l-1.93-4.5a2.064,2.064,0,0,0-2.2-1.169Zm1.929,6.15a1.929,1.929,0,0,0,0,3.857A1.929,1.929,0,0,0,17.587,15.2Zm2.723-4.085H17.043a2.067,2.067,0,0,1-2.065-2.065V4.766H13.389V16.792H15a2.611,2.611,0,0,1,5.17,0c.511-.052,1.588.246,1.613-.567V15.2H20.621a.341.341,0,0,1,0-.681h1.164V13.311H20.621a.341.341,0,0,1,0-.681h1.164A1.479,1.479,0,0,0,20.31,11.119ZM17.043,12.63H15.318a.341.341,0,0,0,0,.681h1.725A.341.341,0,0,0,17.043,12.63Z" id="delivery"/></g></g></svg>