<?xml version="1.0" ?><svg viewBox="0 0 19.773 22.493" xmlns="http://www.w3.org/2000/svg"><g data-name="Layer 2" id="Layer_2"><g data-name="Layer 1" id="Layer_1-2"><path d="M19.153,6.458a4.2,4.2,0,0,0,.387-3.576.341.341,0,0,0-.562-.129L16.292,5.439l-1.521-.408L14.363,3.51,17.049.824a.342.342,0,0,0-.13-.562,4.2,4.2,0,0,0-3.588.4C5.519-2.389-2.444,5.713.706,13.462a4.246,4.246,0,0,0,5.642,5.631,9.825,9.825,0,0,0,8.741-.8l4.1,4.1a.342.342,0,0,0,.581-.24V9.9A9.8,9.8,0,0,0,19.153,6.458ZM.711,9.9A9.21,9.21,0,0,1,12.673,1.157,4.189,4.189,0,0,0,11.35,4.872L5.139,11.083a4.224,4.224,0,0,0-3.973,1.623A9.048,9.048,0,0,1,.711,9.9Zm1.3,7.887A3.571,3.571,0,0,1,4.527,11.72c.315-.051.7.19.97-.032L11.955,5.23a.342.342,0,0,0,.093-.3,3.575,3.575,0,0,1,4.1-4.163l-2.4,2.405a.339.339,0,0,0-.088.329l.509,1.9a.336.336,0,0,0,.241.24l1.9.51a.341.341,0,0,0,.329-.088l2.405-2.405a3.575,3.575,0,0,1-4.164,4.1.339.339,0,0,0-.3.094L8.114,14.305a.339.339,0,0,0-.094.3,3.554,3.554,0,0,1-6,3.178Zm17.076,3.545-3.714-3.713a.339.339,0,0,0-.427-.044A9.128,9.128,0,0,1,7.1,18.636a4.225,4.225,0,0,0,1.623-3.973l6.21-6.211a4.2,4.2,0,0,0,3.717-1.323C19.477,8.918,18.954,19.264,19.091,21.332ZM16.141,9.9A6.248,6.248,0,0,1,9.9,16.141a.341.341,0,0,1,0-.681A5.566,5.566,0,0,0,15.46,9.9a.341.341,0,0,1,.681,0Zm-12.48,0A6.247,6.247,0,0,1,9.9,3.661a.34.34,0,0,1,0,.68A5.566,5.566,0,0,0,4.342,9.9a.341.341,0,1,1-.681,0Zm2.347,3.653-1.9-.509a.34.34,0,0,0-.328.088L2.387,14.523a.345.345,0,0,0-.088.329l.509,1.9a.342.342,0,0,0,.241.24l1.9.51a.372.372,0,0,0,.088.011c.17.107,1.42-1.331,1.632-1.491a.342.342,0,0,0,.088-.329l-.509-1.9A.343.343,0,0,0,6.008,13.553ZM4.936,16.794l-1.521-.407-.407-1.521,1.113-1.114,1.521.408.407,1.521Z" data-name="customer support" id="customer_support"/></g></g></svg>