<?xml version="1.0" ?><svg viewBox="0 0 22.465 22.465" xmlns="http://www.w3.org/2000/svg"><g data-name="Layer 2" id="Layer_2"><g data-name="Layer 1" id="Layer_1-2"><path d="M22.125,0H.341A.34.34,0,0,0,0,.34V22.125a.34.34,0,0,0,.341.34h13.7a.341.341,0,1,0,0-.681H.681V3.858h21.1V21.784H19.94a.341.341,0,1,0,0,.681h2.185a.34.34,0,0,0,.34-.34V.34A.34.34,0,0,0,22.125,0Zm-.341,3.177H.681V.681h21.1ZM19.7,1.69a.338.338,0,1,1,.241.581A.343.343,0,0,1,19.7,1.69Zm-1.575-.1a.341.341,0,0,1,0,.681A.341.341,0,0,1,18.129,1.59Zm-2.055.1a.338.338,0,1,1,.24.581A.343.343,0,0,1,16.074,1.69Zm-.453,14.033c3.535-7.177-5.543-13.8-11.282-8.207-5.592,5.74,1.032,14.816,8.207,11.282l3.031,3.03a2.174,2.174,0,1,0,3.075-3.075Zm-2.772,2.415a.34.34,0,0,0-.407-.057C5.949,21.564-.314,13.283,4.82,8c5.288-5.135,13.567,1.13,10.085,7.622a.341.341,0,0,0,.056.407l2.183,2.182L15.031,20.32Zm5.322,3.209a1.5,1.5,0,0,1-2.113,0l-.545-.546,2.112-2.112.546.546A1.5,1.5,0,0,1,18.171,21.347ZM13.553,9.869,9.468,8.114a.34.34,0,0,0-.269,0L5.115,9.869a.34.34,0,0,0-.206.313V14.84a.341.341,0,0,0,.206.313L9.2,16.908a.34.34,0,0,0,.269,0l4.085-1.755a.341.341,0,0,0,.206-.313V10.182A.34.34,0,0,0,13.553,9.869ZM9.333,8.8l3.223,1.385L9.334,11.566,6.112,10.182ZM5.59,10.7l3.4,1.462v3.919l-3.4-1.463Zm4.084,5.381V12.16l3.4-1.462v3.918Z" data-name="product search" id="product_search"/></g></g></svg>