<?xml version="1.0" ?><svg viewBox="0 0 22.465 22.465" xmlns="http://www.w3.org/2000/svg"><g data-name="Layer 2" id="Layer_2"><g data-name="Layer 1" id="Layer_1-2"><path d="M6.127,4.425V3.064a.8.8,0,0,0-.794-.795H3.064a.8.8,0,0,0-.795.8V4.425a.8.8,0,0,0,.8.8H5.333A.8.8,0,0,0,6.127,4.425Zm-3.177,0V3.064a.114.114,0,0,1,.114-.114H5.333a.114.114,0,0,1,.113.114V4.425a.114.114,0,0,1-.113.114H3.064A.115.115,0,0,1,2.95,4.425ZM4.564,6.908a.341.341,0,1,1,0,.681H2.61a.341.341,0,0,1,0-.681Zm1.63,0H8.148a.341.341,0,0,1,0,.681H6.194A.341.341,0,0,1,6.194,6.908Zm3.584.681a.341.341,0,0,1,0-.681h1.955a.341.341,0,0,1,0,.681Zm5.539,0H13.362a.341.341,0,0,1,0-.681h1.955a.341.341,0,1,1,0,.681ZM6.292,9.546H2.61a.341.341,0,1,1,0-.681H6.292a.341.341,0,0,1,0,.681Zm1.984-.681h5.166a.341.341,0,0,1,0,.681H8.276A.341.341,0,0,1,8.276,8.865Zm5.907-6.6a1.462,1.462,0,0,0-.948.352,1.47,1.47,0,1,0,0,2.247,1.473,1.473,0,1,0,.948-2.6Zm-1.892,2.27a.8.8,0,0,1,0-1.589A.795.795,0,0,1,12.291,4.539Zm1.892,0a.793.793,0,0,1-.539-.211,1.47,1.47,0,0,0,0-1.167A.79.79,0,1,1,14.183,4.539ZM1.7,13.615c-.855.1-1.685-.3-1.7-1.248V1.248A1.249,1.249,0,0,1,1.248,0H16.679a1.249,1.249,0,0,1,1.248,1.248V9.87a.341.341,0,0,1-.681,0V1.248a.567.567,0,0,0-.567-.567H1.248a.567.567,0,0,0-.567.567V12.367c.019.589.58.591,1.021.567A.341.341,0,0,1,1.7,13.615Zm20.423-2.723H3.064a.341.341,0,0,0-.341.341V22.124a.341.341,0,0,0,.341.341H22.125a.341.341,0,0,0,.34-.341V11.233A.34.34,0,0,0,22.125,10.892Zm-.341,10.892H3.4V11.573h18.38ZM5.106,19.061a1.022,1.022,0,0,1,1.021,1.021.34.34,0,0,0,.34.34H18.721a.34.34,0,0,0,.34-.34,1.023,1.023,0,0,1,1.021-1.021.341.341,0,0,0,.341-.34V14.636a.341.341,0,0,0-.341-.34,1.023,1.023,0,0,1-1.021-1.021.34.34,0,0,0-.34-.341H6.467a.34.34,0,0,0-.34.341A1.022,1.022,0,0,1,5.106,14.3a.341.341,0,0,0-.341.34v4.085A.341.341,0,0,0,5.106,19.061Zm.34-4.119a1.707,1.707,0,0,0,1.328-1.327H18.415a1.7,1.7,0,0,0,1.327,1.327v3.473a1.7,1.7,0,0,0-1.327,1.327H6.774a1.707,1.707,0,0,0-1.328-1.327Zm3.219,3.1a1.362,1.362,0,0,0,0-2.723A1.362,1.362,0,0,0,8.665,18.04Zm0-2.042a.681.681,0,0,1,0,1.361A.681.681,0,0,1,8.665,16Zm7.942,2.042a1.362,1.362,0,0,0,0-2.723A1.362,1.362,0,0,0,16.607,18.04Zm0-2.042a.681.681,0,0,1,0,1.361A.681.681,0,0,1,16.607,16Zm-4.355-1.575c-.025-.252.018-.581.34-.581s.365.328.34.58a1.379,1.379,0,0,1,.981.8.341.341,0,0,1-.628.264c-.242-.649-1.447-.491-1.429.218,0,.429.24.638.736.638a1.311,1.311,0,0,1,.34,2.6c.025.252-.019.579-.34.58s-.365-.329-.34-.581a1.378,1.378,0,0,1-.976-.8.34.34,0,0,1,.627-.265c.242.65,1.448.491,1.43-.217,0-.423-.249-.638-.741-.638A1.31,1.31,0,0,1,12.252,14.423Z" id="payment"/></g></g></svg>